<mxfile host="app.diagrams.net" agent="Mozilla/5.0 (Windows NT 10.0; Win64; x64) AppleWebKit/537.36 (KHTML, like Gecko) Chrome/138.0.0.0 Safari/537.36" version="27.1.6" pages="2">
  <diagram name="Page-1" id="PozyXL4Kf75bEJNNd9oK">
    <mxGraphModel dx="946" dy="597" grid="0" gridSize="10" guides="1" tooltips="1" connect="1" arrows="1" fold="1" page="1" pageScale="1" pageWidth="850" pageHeight="1100" background="none" math="0" shadow="1">
      <root>
        <mxCell id="0" />
        <mxCell id="1" parent="0" />
        <mxCell id="RR_Y429svCnKg-pMf7cz-1" value="Travel_agency" style="swimlane;childLayout=stackLayout;horizontal=1;startSize=50;horizontalStack=0;rounded=1;fontSize=14;fontStyle=0;strokeWidth=2;resizeParent=0;resizeLast=1;shadow=0;dashed=0;align=center;arcSize=4;whiteSpace=wrap;html=1;" vertex="1" parent="1">
          <mxGeometry x="170" y="120" width="160" height="100" as="geometry" />
        </mxCell>
        <mxCell id="RR_Y429svCnKg-pMf7cz-2" value="id&amp;nbsp;&lt;span style=&quot;white-space: pre;&quot;&gt;&#x9;&lt;/span&gt;&lt;span style=&quot;white-space: pre;&quot;&gt;&#x9;&lt;/span&gt;&lt;span style=&quot;white-space: pre;&quot;&gt;&#x9;&lt;/span&gt;&lt;span style=&quot;white-space: pre;&quot;&gt;&#x9;&lt;span style=&quot;white-space: pre;&quot;&gt;&#x9;&lt;/span&gt;pk&lt;/span&gt;&lt;br&gt;name&amp;nbsp;&lt;span style=&quot;white-space: pre;&quot;&gt;&#x9;&lt;/span&gt;&lt;span style=&quot;white-space: pre;&quot;&gt;&#x9;&lt;/span&gt;&lt;span style=&quot;white-space: pre;&quot;&gt;&#x9;&lt;/span&gt;&lt;span style=&quot;white-space: pre;&quot;&gt;&#x9;&lt;/span&gt;u&lt;br&gt;contact" style="align=left;strokeColor=none;fillColor=none;spacingLeft=4;spacingRight=4;fontSize=12;verticalAlign=top;resizable=0;rotatable=0;part=1;html=1;whiteSpace=wrap;" vertex="1" parent="RR_Y429svCnKg-pMf7cz-1">
          <mxGeometry y="50" width="160" height="50" as="geometry" />
        </mxCell>
        <mxCell id="RR_Y429svCnKg-pMf7cz-27" style="edgeStyle=none;rounded=0;orthogonalLoop=1;jettySize=auto;html=1;exitX=1;exitY=0.25;exitDx=0;exitDy=0;" edge="1" parent="RR_Y429svCnKg-pMf7cz-1" source="RR_Y429svCnKg-pMf7cz-2" target="RR_Y429svCnKg-pMf7cz-2">
          <mxGeometry relative="1" as="geometry" />
        </mxCell>
        <mxCell id="RR_Y429svCnKg-pMf7cz-3" value="includes" style="swimlane;childLayout=stackLayout;horizontal=1;startSize=50;horizontalStack=0;rounded=1;fontSize=14;fontStyle=0;strokeWidth=2;resizeParent=0;resizeLast=1;shadow=0;dashed=0;align=center;arcSize=4;whiteSpace=wrap;html=1;" vertex="1" parent="1">
          <mxGeometry x="520" y="320" width="160" height="90" as="geometry" />
        </mxCell>
        <mxCell id="RR_Y429svCnKg-pMf7cz-4" value="holiday_id&lt;span style=&quot;white-space: pre;&quot;&gt;&#x9;&lt;/span&gt;&lt;span style=&quot;white-space: pre;&quot;&gt;&#x9;&lt;/span&gt;&amp;nbsp; &amp;nbsp; pk fk&lt;div&gt;&lt;div&gt;activity_id&lt;span style=&quot;white-space: pre;&quot;&gt;&#x9;&lt;/span&gt;&lt;span style=&quot;white-space: pre;&quot;&gt;&#x9;&lt;/span&gt;&amp;nbsp; &amp;nbsp; pk fk&lt;/div&gt;&lt;/div&gt;" style="align=left;strokeColor=none;fillColor=none;spacingLeft=4;spacingRight=4;fontSize=12;verticalAlign=top;resizable=0;rotatable=0;part=1;html=1;whiteSpace=wrap;" vertex="1" parent="RR_Y429svCnKg-pMf7cz-3">
          <mxGeometry y="50" width="160" height="40" as="geometry" />
        </mxCell>
        <mxCell id="RR_Y429svCnKg-pMf7cz-25" style="edgeStyle=none;rounded=0;orthogonalLoop=1;jettySize=auto;html=1;exitX=0.5;exitY=1;exitDx=0;exitDy=0;" edge="1" parent="RR_Y429svCnKg-pMf7cz-3" source="RR_Y429svCnKg-pMf7cz-4" target="RR_Y429svCnKg-pMf7cz-4">
          <mxGeometry relative="1" as="geometry" />
        </mxCell>
        <mxCell id="RR_Y429svCnKg-pMf7cz-5" value="Holiday" style="swimlane;childLayout=stackLayout;horizontal=1;startSize=50;horizontalStack=0;rounded=1;fontSize=14;fontStyle=0;strokeWidth=2;resizeParent=0;resizeLast=1;shadow=0;dashed=0;align=center;arcSize=4;whiteSpace=wrap;html=1;" vertex="1" parent="1">
          <mxGeometry x="190" y="320" width="160" height="140" as="geometry" />
        </mxCell>
        <mxCell id="RR_Y429svCnKg-pMf7cz-6" value="id&lt;span style=&quot;white-space: pre;&quot;&gt;&#x9;&lt;/span&gt;&lt;span style=&quot;white-space: pre;&quot;&gt;&#x9;&lt;/span&gt;&lt;span style=&quot;white-space: pre;&quot;&gt;&#x9;&lt;/span&gt;&lt;span style=&quot;white-space: pre;&quot;&gt;&#x9;&lt;/span&gt;&lt;span style=&quot;white-space: pre;&quot;&gt;&#x9;&lt;/span&gt;pk&lt;div&gt;name&amp;nbsp;&lt;span style=&quot;white-space: pre;&quot;&gt;&#x9;&lt;/span&gt;&lt;span style=&quot;white-space: pre;&quot;&gt;&#x9;&lt;/span&gt;&lt;span style=&quot;white-space: pre;&quot;&gt;&#x9;&lt;/span&gt;&lt;span style=&quot;white-space: pre;&quot;&gt;&#x9;&lt;/span&gt;u&lt;/div&gt;&lt;div&gt;destination&lt;/div&gt;&lt;div&gt;price&lt;/div&gt;&lt;div&gt;travel_agency_id&lt;span style=&quot;white-space: pre;&quot;&gt;&#x9;&lt;/span&gt;&lt;span style=&quot;white-space: pre;&quot;&gt;&#x9;&lt;/span&gt;fk&lt;/div&gt;" style="align=left;strokeColor=none;fillColor=none;spacingLeft=4;spacingRight=4;fontSize=12;verticalAlign=top;resizable=0;rotatable=0;part=1;html=1;whiteSpace=wrap;" vertex="1" parent="RR_Y429svCnKg-pMf7cz-5">
          <mxGeometry y="50" width="160" height="90" as="geometry" />
        </mxCell>
        <mxCell id="RR_Y429svCnKg-pMf7cz-7" value="Activity" style="swimlane;childLayout=stackLayout;horizontal=1;startSize=50;horizontalStack=0;rounded=1;fontSize=14;fontStyle=0;strokeWidth=2;resizeParent=0;resizeLast=1;shadow=0;dashed=0;align=center;arcSize=4;whiteSpace=wrap;html=1;" vertex="1" parent="1">
          <mxGeometry x="510" y="125" width="160" height="90" as="geometry" />
        </mxCell>
        <mxCell id="RR_Y429svCnKg-pMf7cz-8" value="id&lt;span style=&quot;white-space: pre;&quot;&gt;&#x9;&lt;/span&gt;&lt;span style=&quot;white-space: pre;&quot;&gt;&#x9;&lt;/span&gt;&lt;span style=&quot;white-space: pre;&quot;&gt;&#x9;&lt;/span&gt;&lt;span style=&quot;white-space: pre;&quot;&gt;&#x9;&lt;/span&gt;&lt;span style=&quot;white-space: pre;&quot;&gt;&#x9;&lt;/span&gt;pk&lt;div&gt;name&lt;span style=&quot;white-space: pre;&quot;&gt;&#x9;&lt;/span&gt;&lt;span style=&quot;white-space: pre;&quot;&gt;&#x9;&lt;/span&gt;&lt;span style=&quot;white-space: pre;&quot;&gt;&#x9;&lt;/span&gt;&lt;span style=&quot;white-space: pre;&quot;&gt;&#x9;&lt;/span&gt;u&lt;/div&gt;&lt;div&gt;&lt;br&gt;&lt;/div&gt;" style="align=left;strokeColor=none;fillColor=none;spacingLeft=4;spacingRight=4;fontSize=12;verticalAlign=top;resizable=0;rotatable=0;part=1;html=1;whiteSpace=wrap;" vertex="1" parent="RR_Y429svCnKg-pMf7cz-7">
          <mxGeometry y="50" width="160" height="40" as="geometry" />
        </mxCell>
        <mxCell id="RR_Y429svCnKg-pMf7cz-26" style="edgeStyle=none;rounded=0;orthogonalLoop=1;jettySize=auto;html=1;exitX=1;exitY=0.75;exitDx=0;exitDy=0;entryX=1;entryY=0.25;entryDx=0;entryDy=0;" edge="1" parent="1" source="RR_Y429svCnKg-pMf7cz-6" target="RR_Y429svCnKg-pMf7cz-2">
          <mxGeometry relative="1" as="geometry">
            <Array as="points">
              <mxPoint x="400" y="438" />
              <mxPoint x="400" y="180" />
            </Array>
          </mxGeometry>
        </mxCell>
        <mxCell id="RR_Y429svCnKg-pMf7cz-28" style="edgeStyle=none;rounded=0;orthogonalLoop=1;jettySize=auto;html=1;exitX=0;exitY=0.25;exitDx=0;exitDy=0;entryX=0.981;entryY=0.139;entryDx=0;entryDy=0;entryPerimeter=0;" edge="1" parent="1" source="RR_Y429svCnKg-pMf7cz-4" target="RR_Y429svCnKg-pMf7cz-6">
          <mxGeometry relative="1" as="geometry" />
        </mxCell>
        <mxCell id="RR_Y429svCnKg-pMf7cz-29" style="edgeStyle=none;rounded=0;orthogonalLoop=1;jettySize=auto;html=1;exitX=1;exitY=0.75;exitDx=0;exitDy=0;entryX=1;entryY=0.25;entryDx=0;entryDy=0;" edge="1" parent="1" source="RR_Y429svCnKg-pMf7cz-4" target="RR_Y429svCnKg-pMf7cz-8">
          <mxGeometry relative="1" as="geometry">
            <Array as="points">
              <mxPoint x="760" y="400" />
              <mxPoint x="760" y="185" />
            </Array>
          </mxGeometry>
        </mxCell>
      </root>
    </mxGraphModel>
  </diagram>
  <diagram id="0JnADb_ftG82s9eygLmm" name="Page-2">
    <mxGraphModel dx="1113" dy="702" grid="0" gridSize="10" guides="1" tooltips="1" connect="1" arrows="1" fold="1" page="1" pageScale="1" pageWidth="1100" pageHeight="850" background="none" math="0" shadow="0">
      <root>
        <mxCell id="0" />
        <mxCell id="1" parent="0" />
        <mxCell id="uSAuibyBn53Rk9vLUUWF-14" style="shape=connector;rounded=0;orthogonalLoop=1;jettySize=auto;html=1;exitX=0.655;exitY=-0.05;exitDx=0;exitDy=0;entryX=0.5;entryY=1;entryDx=0;entryDy=0;strokeColor=default;align=center;verticalAlign=middle;fontFamily=Helvetica;fontSize=11;fontColor=default;labelBackgroundColor=default;startFill=0;endArrow=none;exitPerimeter=0;" edge="1" parent="1" source="uSAuibyBn53Rk9vLUUWF-1" target="uSAuibyBn53Rk9vLUUWF-5">
          <mxGeometry relative="1" as="geometry" />
        </mxCell>
        <mxCell id="uSAuibyBn53Rk9vLUUWF-17" style="shape=connector;rounded=0;orthogonalLoop=1;jettySize=auto;html=1;exitX=0.175;exitY=0.013;exitDx=0;exitDy=0;entryX=0.5;entryY=1;entryDx=0;entryDy=0;strokeColor=default;align=center;verticalAlign=middle;fontFamily=Helvetica;fontSize=11;fontColor=default;labelBackgroundColor=default;startFill=0;endArrow=none;exitPerimeter=0;" edge="1" parent="1" source="uSAuibyBn53Rk9vLUUWF-1" target="uSAuibyBn53Rk9vLUUWF-6">
          <mxGeometry relative="1" as="geometry" />
        </mxCell>
        <mxCell id="uSAuibyBn53Rk9vLUUWF-18" style="shape=connector;rounded=0;orthogonalLoop=1;jettySize=auto;html=1;exitX=0;exitY=0.5;exitDx=0;exitDy=0;entryX=1;entryY=1;entryDx=0;entryDy=0;strokeColor=default;align=center;verticalAlign=middle;fontFamily=Helvetica;fontSize=11;fontColor=default;labelBackgroundColor=default;startFill=0;endArrow=none;" edge="1" parent="1" source="uSAuibyBn53Rk9vLUUWF-1" target="uSAuibyBn53Rk9vLUUWF-7">
          <mxGeometry relative="1" as="geometry" />
        </mxCell>
        <mxCell id="uSAuibyBn53Rk9vLUUWF-20" style="edgeStyle=none;shape=connector;rounded=0;orthogonalLoop=1;jettySize=auto;html=1;exitX=0;exitY=1;exitDx=0;exitDy=0;entryX=1;entryY=0;entryDx=0;entryDy=0;strokeColor=default;align=center;verticalAlign=middle;fontFamily=Helvetica;fontSize=11;fontColor=default;labelBackgroundColor=default;startFill=0;endArrow=none;" edge="1" parent="1" source="uSAuibyBn53Rk9vLUUWF-1" target="uSAuibyBn53Rk9vLUUWF-3">
          <mxGeometry relative="1" as="geometry" />
        </mxCell>
        <mxCell id="uSAuibyBn53Rk9vLUUWF-1" value="catering_services" style="whiteSpace=wrap;html=1;align=center;" vertex="1" parent="1">
          <mxGeometry x="140" y="210" width="100" height="40" as="geometry" />
        </mxCell>
        <mxCell id="uSAuibyBn53Rk9vLUUWF-3" value="specialization" style="ellipse;whiteSpace=wrap;html=1;align=center;" vertex="1" parent="1">
          <mxGeometry x="30" y="260" width="100" height="40" as="geometry" />
        </mxCell>
        <mxCell id="uSAuibyBn53Rk9vLUUWF-4" value="contact information" style="ellipse;whiteSpace=wrap;html=1;align=center;" vertex="1" parent="1">
          <mxGeometry x="160" y="300" width="100" height="40" as="geometry" />
        </mxCell>
        <mxCell id="uSAuibyBn53Rk9vLUUWF-5" value="location" style="ellipse;whiteSpace=wrap;html=1;align=center;" vertex="1" parent="1">
          <mxGeometry x="190" y="110" width="100" height="40" as="geometry" />
        </mxCell>
        <mxCell id="uSAuibyBn53Rk9vLUUWF-6" value="name" style="ellipse;whiteSpace=wrap;html=1;align=center;fontStyle=4;" vertex="1" parent="1">
          <mxGeometry x="60" y="120" width="100" height="40" as="geometry" />
        </mxCell>
        <mxCell id="uSAuibyBn53Rk9vLUUWF-7" value="id" style="ellipse;whiteSpace=wrap;html=1;align=center;fontStyle=4;" vertex="1" parent="1">
          <mxGeometry x="10" y="190" width="100" height="40" as="geometry" />
        </mxCell>
        <mxCell id="uSAuibyBn53Rk9vLUUWF-9" value="" style="endArrow=none;html=1;rounded=0;exitX=0.5;exitY=1;exitDx=0;exitDy=0;entryX=0.385;entryY=0.05;entryDx=0;entryDy=0;entryPerimeter=0;" edge="1" parent="1" source="uSAuibyBn53Rk9vLUUWF-1" target="uSAuibyBn53Rk9vLUUWF-4">
          <mxGeometry relative="1" as="geometry">
            <mxPoint x="350" y="310" as="sourcePoint" />
            <mxPoint x="510" y="310" as="targetPoint" />
          </mxGeometry>
        </mxCell>
        <mxCell id="uSAuibyBn53Rk9vLUUWF-45" style="shape=connector;rounded=0;orthogonalLoop=1;jettySize=auto;html=1;exitX=1;exitY=0.25;exitDx=0;exitDy=0;entryX=0;entryY=1;entryDx=0;entryDy=0;strokeColor=default;align=center;verticalAlign=middle;fontFamily=Helvetica;fontSize=11;fontColor=default;labelBackgroundColor=default;startFill=0;endArrow=none;" edge="1" parent="1" source="uSAuibyBn53Rk9vLUUWF-49" target="uSAuibyBn53Rk9vLUUWF-52">
          <mxGeometry relative="1" as="geometry" />
        </mxCell>
        <mxCell id="uSAuibyBn53Rk9vLUUWF-46" style="shape=connector;rounded=0;orthogonalLoop=1;jettySize=auto;html=1;exitX=0.5;exitY=0;exitDx=0;exitDy=0;entryX=0.5;entryY=1;entryDx=0;entryDy=0;strokeColor=default;align=center;verticalAlign=middle;fontFamily=Helvetica;fontSize=11;fontColor=default;labelBackgroundColor=default;startFill=0;endArrow=none;" edge="1" parent="1" source="uSAuibyBn53Rk9vLUUWF-49">
          <mxGeometry relative="1" as="geometry">
            <mxPoint x="530" y="119.99999999999989" as="targetPoint" />
          </mxGeometry>
        </mxCell>
        <mxCell id="uSAuibyBn53Rk9vLUUWF-47" style="shape=connector;rounded=0;orthogonalLoop=1;jettySize=auto;html=1;exitX=0;exitY=0;exitDx=0;exitDy=0;entryX=0.515;entryY=0.838;entryDx=0;entryDy=0;strokeColor=default;align=center;verticalAlign=middle;fontFamily=Helvetica;fontSize=11;fontColor=default;labelBackgroundColor=default;startFill=0;endArrow=none;entryPerimeter=0;" edge="1" parent="1" source="uSAuibyBn53Rk9vLUUWF-49" target="uSAuibyBn53Rk9vLUUWF-54">
          <mxGeometry relative="1" as="geometry">
            <mxPoint x="510.35533905932743" y="204.14213562373106" as="targetPoint" />
          </mxGeometry>
        </mxCell>
        <mxCell id="uSAuibyBn53Rk9vLUUWF-48" style="edgeStyle=none;shape=connector;rounded=0;orthogonalLoop=1;jettySize=auto;html=1;exitX=0.25;exitY=1;exitDx=0;exitDy=0;entryX=0.5;entryY=0;entryDx=0;entryDy=0;strokeColor=default;align=center;verticalAlign=middle;fontFamily=Helvetica;fontSize=11;fontColor=default;labelBackgroundColor=default;startFill=0;endArrow=none;" edge="1" parent="1" source="uSAuibyBn53Rk9vLUUWF-49" target="uSAuibyBn53Rk9vLUUWF-50">
          <mxGeometry relative="1" as="geometry">
            <mxPoint x="510.35533905932743" y="265.85786437626905" as="targetPoint" />
          </mxGeometry>
        </mxCell>
        <mxCell id="uSAuibyBn53Rk9vLUUWF-99" style="edgeStyle=none;shape=connector;rounded=0;orthogonalLoop=1;jettySize=auto;html=1;exitX=0.75;exitY=1;exitDx=0;exitDy=0;strokeColor=default;align=center;verticalAlign=middle;fontFamily=Helvetica;fontSize=11;fontColor=default;labelBackgroundColor=default;startFill=0;endArrow=none;" edge="1" parent="1" source="uSAuibyBn53Rk9vLUUWF-49" target="uSAuibyBn53Rk9vLUUWF-98">
          <mxGeometry relative="1" as="geometry" />
        </mxCell>
        <mxCell id="uSAuibyBn53Rk9vLUUWF-49" value="banquets" style="whiteSpace=wrap;html=1;align=center;" vertex="1" parent="1">
          <mxGeometry x="470" y="210" width="100" height="40" as="geometry" />
        </mxCell>
        <mxCell id="uSAuibyBn53Rk9vLUUWF-50" value="time" style="ellipse;whiteSpace=wrap;html=1;align=center;" vertex="1" parent="1">
          <mxGeometry x="325" y="290" width="100" height="40" as="geometry" />
        </mxCell>
        <mxCell id="uSAuibyBn53Rk9vLUUWF-51" value="contact person" style="ellipse;whiteSpace=wrap;html=1;align=center;" vertex="1" parent="1">
          <mxGeometry x="441" y="340" width="100" height="40" as="geometry" />
        </mxCell>
        <mxCell id="uSAuibyBn53Rk9vLUUWF-52" value="location" style="ellipse;whiteSpace=wrap;html=1;align=center;" vertex="1" parent="1">
          <mxGeometry x="560" y="140" width="100" height="40" as="geometry" />
        </mxCell>
        <mxCell id="uSAuibyBn53Rk9vLUUWF-54" value="id" style="ellipse;whiteSpace=wrap;html=1;align=center;fontStyle=4;" vertex="1" parent="1">
          <mxGeometry x="370" y="140" width="100" height="40" as="geometry" />
        </mxCell>
        <mxCell id="uSAuibyBn53Rk9vLUUWF-55" value="" style="endArrow=none;html=1;rounded=0;exitX=0.5;exitY=1;exitDx=0;exitDy=0;entryX=0.385;entryY=0.05;entryDx=0;entryDy=0;entryPerimeter=0;" edge="1" parent="1" source="uSAuibyBn53Rk9vLUUWF-49" target="uSAuibyBn53Rk9vLUUWF-51">
          <mxGeometry relative="1" as="geometry">
            <mxPoint x="745" y="310" as="sourcePoint" />
            <mxPoint x="905" y="310" as="targetPoint" />
          </mxGeometry>
        </mxCell>
        <mxCell id="uSAuibyBn53Rk9vLUUWF-56" value="organize" style="shape=rhombus;perimeter=rhombusPerimeter;whiteSpace=wrap;html=1;align=center;fontFamily=Helvetica;fontSize=11;fontColor=default;labelBackgroundColor=default;" vertex="1" parent="1">
          <mxGeometry x="280" y="200" width="120" height="60" as="geometry" />
        </mxCell>
        <mxCell id="uSAuibyBn53Rk9vLUUWF-58" value="" style="endArrow=none;html=1;rounded=0;strokeColor=default;align=center;verticalAlign=middle;fontFamily=Helvetica;fontSize=11;fontColor=default;labelBackgroundColor=default;entryX=0;entryY=0.5;entryDx=0;entryDy=0;" edge="1" parent="1" target="uSAuibyBn53Rk9vLUUWF-56">
          <mxGeometry relative="1" as="geometry">
            <mxPoint x="240" y="230" as="sourcePoint" />
            <mxPoint x="390" y="230" as="targetPoint" />
          </mxGeometry>
        </mxCell>
        <mxCell id="uSAuibyBn53Rk9vLUUWF-59" value="1" style="resizable=0;html=1;whiteSpace=wrap;align=right;verticalAlign=bottom;fontFamily=Helvetica;fontSize=11;fontColor=default;labelBackgroundColor=default;" connectable="0" vertex="1" parent="uSAuibyBn53Rk9vLUUWF-58">
          <mxGeometry x="1" relative="1" as="geometry" />
        </mxCell>
        <mxCell id="uSAuibyBn53Rk9vLUUWF-64" value="" style="shape=link;html=1;rounded=0;strokeColor=default;align=center;verticalAlign=middle;fontFamily=Helvetica;fontSize=11;fontColor=default;labelBackgroundColor=default;startFill=0;endArrow=none;exitX=0;exitY=0.5;exitDx=0;exitDy=0;entryX=1;entryY=0.5;entryDx=0;entryDy=0;" edge="1" parent="1" source="uSAuibyBn53Rk9vLUUWF-49" target="uSAuibyBn53Rk9vLUUWF-56">
          <mxGeometry relative="1" as="geometry">
            <mxPoint x="350" y="310" as="sourcePoint" />
            <mxPoint x="400" y="198" as="targetPoint" />
          </mxGeometry>
        </mxCell>
        <mxCell id="uSAuibyBn53Rk9vLUUWF-65" value="N" style="resizable=0;html=1;whiteSpace=wrap;align=right;verticalAlign=bottom;fontFamily=Helvetica;fontSize=11;fontColor=default;labelBackgroundColor=default;" connectable="0" vertex="1" parent="uSAuibyBn53Rk9vLUUWF-64">
          <mxGeometry x="1" relative="1" as="geometry">
            <mxPoint x="14" y="-5" as="offset" />
          </mxGeometry>
        </mxCell>
        <mxCell id="uSAuibyBn53Rk9vLUUWF-66" style="shape=connector;rounded=0;orthogonalLoop=1;jettySize=auto;html=1;exitX=1;exitY=0.25;exitDx=0;exitDy=0;entryX=0;entryY=1;entryDx=0;entryDy=0;strokeColor=default;align=center;verticalAlign=middle;fontFamily=Helvetica;fontSize=11;fontColor=default;labelBackgroundColor=default;startFill=0;endArrow=none;" edge="1" parent="1" source="uSAuibyBn53Rk9vLUUWF-70" target="uSAuibyBn53Rk9vLUUWF-73">
          <mxGeometry relative="1" as="geometry" />
        </mxCell>
        <mxCell id="uSAuibyBn53Rk9vLUUWF-67" style="shape=connector;rounded=0;orthogonalLoop=1;jettySize=auto;html=1;exitX=0.5;exitY=0;exitDx=0;exitDy=0;entryX=0.5;entryY=1;entryDx=0;entryDy=0;strokeColor=default;align=center;verticalAlign=middle;fontFamily=Helvetica;fontSize=11;fontColor=default;labelBackgroundColor=default;startFill=0;endArrow=none;" edge="1" parent="1" source="uSAuibyBn53Rk9vLUUWF-70" target="uSAuibyBn53Rk9vLUUWF-74">
          <mxGeometry relative="1" as="geometry" />
        </mxCell>
        <mxCell id="uSAuibyBn53Rk9vLUUWF-68" style="shape=connector;rounded=0;orthogonalLoop=1;jettySize=auto;html=1;exitX=0.5;exitY=1;exitDx=0;exitDy=0;entryX=0.5;entryY=0;entryDx=0;entryDy=0;strokeColor=default;align=center;verticalAlign=middle;fontFamily=Helvetica;fontSize=11;fontColor=default;labelBackgroundColor=default;startFill=0;endArrow=none;" edge="1" parent="1" source="uSAuibyBn53Rk9vLUUWF-70" target="uSAuibyBn53Rk9vLUUWF-75">
          <mxGeometry relative="1" as="geometry" />
        </mxCell>
        <mxCell id="uSAuibyBn53Rk9vLUUWF-69" style="edgeStyle=none;shape=connector;rounded=0;orthogonalLoop=1;jettySize=auto;html=1;exitX=1;exitY=0.75;exitDx=0;exitDy=0;entryX=0.5;entryY=0;entryDx=0;entryDy=0;strokeColor=default;align=center;verticalAlign=middle;fontFamily=Helvetica;fontSize=11;fontColor=default;labelBackgroundColor=default;startFill=0;endArrow=none;" edge="1" parent="1" source="uSAuibyBn53Rk9vLUUWF-70" target="uSAuibyBn53Rk9vLUUWF-71">
          <mxGeometry relative="1" as="geometry" />
        </mxCell>
        <mxCell id="uSAuibyBn53Rk9vLUUWF-70" value="menus" style="whiteSpace=wrap;html=1;align=center;" vertex="1" parent="1">
          <mxGeometry x="860" y="210" width="100" height="40" as="geometry" />
        </mxCell>
        <mxCell id="uSAuibyBn53Rk9vLUUWF-71" value="price per person" style="ellipse;whiteSpace=wrap;html=1;align=center;" vertex="1" parent="1">
          <mxGeometry x="960" y="260" width="100" height="40" as="geometry" />
        </mxCell>
        <mxCell id="uSAuibyBn53Rk9vLUUWF-73" value="description" style="ellipse;whiteSpace=wrap;html=1;align=center;" vertex="1" parent="1">
          <mxGeometry x="970" y="170" width="100" height="40" as="geometry" />
        </mxCell>
        <mxCell id="uSAuibyBn53Rk9vLUUWF-74" value="name" style="ellipse;whiteSpace=wrap;html=1;align=center;fontStyle=4;" vertex="1" parent="1">
          <mxGeometry x="820" y="140" width="100" height="40" as="geometry" />
        </mxCell>
        <mxCell id="uSAuibyBn53Rk9vLUUWF-75" value="id" style="ellipse;whiteSpace=wrap;html=1;align=center;fontStyle=4;" vertex="1" parent="1">
          <mxGeometry x="820" y="290" width="100" height="40" as="geometry" />
        </mxCell>
        <mxCell id="uSAuibyBn53Rk9vLUUWF-93" style="edgeStyle=none;shape=connector;rounded=0;orthogonalLoop=1;jettySize=auto;html=1;exitX=0.5;exitY=0;exitDx=0;exitDy=0;entryX=0.5;entryY=1;entryDx=0;entryDy=0;strokeColor=default;align=center;verticalAlign=middle;fontFamily=Helvetica;fontSize=11;fontColor=default;labelBackgroundColor=default;startFill=0;endArrow=none;" edge="1" parent="1" source="uSAuibyBn53Rk9vLUUWF-77" target="uSAuibyBn53Rk9vLUUWF-91">
          <mxGeometry relative="1" as="geometry" />
        </mxCell>
        <mxCell id="uSAuibyBn53Rk9vLUUWF-94" style="edgeStyle=none;shape=connector;rounded=0;orthogonalLoop=1;jettySize=auto;html=1;exitX=0.5;exitY=1;exitDx=0;exitDy=0;entryX=0.5;entryY=0;entryDx=0;entryDy=0;strokeColor=default;align=center;verticalAlign=middle;fontFamily=Helvetica;fontSize=11;fontColor=default;labelBackgroundColor=default;startFill=0;endArrow=none;" edge="1" parent="1" source="uSAuibyBn53Rk9vLUUWF-77" target="uSAuibyBn53Rk9vLUUWF-89">
          <mxGeometry relative="1" as="geometry" />
        </mxCell>
        <mxCell id="uSAuibyBn53Rk9vLUUWF-77" value="order" style="shape=rhombus;perimeter=rhombusPerimeter;whiteSpace=wrap;html=1;align=center;fontFamily=Helvetica;fontSize=11;fontColor=default;labelBackgroundColor=default;" vertex="1" parent="1">
          <mxGeometry x="670" y="200" width="110" height="60" as="geometry" />
        </mxCell>
        <mxCell id="uSAuibyBn53Rk9vLUUWF-81" value="" style="shape=link;html=1;rounded=0;strokeColor=default;align=center;verticalAlign=middle;fontFamily=Helvetica;fontSize=11;fontColor=default;labelBackgroundColor=default;startFill=0;endArrow=none;entryX=1;entryY=0.5;entryDx=0;entryDy=0;exitX=0;exitY=0.5;exitDx=0;exitDy=0;" edge="1" parent="1" source="uSAuibyBn53Rk9vLUUWF-77" target="uSAuibyBn53Rk9vLUUWF-49">
          <mxGeometry relative="1" as="geometry">
            <mxPoint x="640" y="220" as="sourcePoint" />
            <mxPoint x="600" y="240" as="targetPoint" />
          </mxGeometry>
        </mxCell>
        <mxCell id="uSAuibyBn53Rk9vLUUWF-82" value="M" style="resizable=0;html=1;whiteSpace=wrap;align=left;verticalAlign=bottom;fontFamily=Helvetica;fontSize=11;fontColor=default;labelBackgroundColor=default;" connectable="0" vertex="1" parent="uSAuibyBn53Rk9vLUUWF-81">
          <mxGeometry x="-1" relative="1" as="geometry">
            <mxPoint x="-20" as="offset" />
          </mxGeometry>
        </mxCell>
        <mxCell id="uSAuibyBn53Rk9vLUUWF-83" value="" style="resizable=0;html=1;whiteSpace=wrap;align=right;verticalAlign=bottom;fontFamily=Helvetica;fontSize=11;fontColor=default;labelBackgroundColor=default;" connectable="0" vertex="1" parent="uSAuibyBn53Rk9vLUUWF-81">
          <mxGeometry x="1" relative="1" as="geometry" />
        </mxCell>
        <mxCell id="uSAuibyBn53Rk9vLUUWF-87" value="" style="endArrow=none;html=1;rounded=0;strokeColor=default;align=center;verticalAlign=middle;fontFamily=Helvetica;fontSize=11;fontColor=default;labelBackgroundColor=default;entryX=1;entryY=0.5;entryDx=0;entryDy=0;exitX=0;exitY=0.5;exitDx=0;exitDy=0;" edge="1" parent="1" source="uSAuibyBn53Rk9vLUUWF-70" target="uSAuibyBn53Rk9vLUUWF-77">
          <mxGeometry relative="1" as="geometry">
            <mxPoint x="490" y="310" as="sourcePoint" />
            <mxPoint x="650" y="310" as="targetPoint" />
          </mxGeometry>
        </mxCell>
        <mxCell id="uSAuibyBn53Rk9vLUUWF-88" value="N" style="resizable=0;html=1;whiteSpace=wrap;align=right;verticalAlign=bottom;fontFamily=Helvetica;fontSize=11;fontColor=default;labelBackgroundColor=default;" connectable="0" vertex="1" parent="uSAuibyBn53Rk9vLUUWF-87">
          <mxGeometry x="1" relative="1" as="geometry">
            <mxPoint x="17" as="offset" />
          </mxGeometry>
        </mxCell>
        <mxCell id="uSAuibyBn53Rk9vLUUWF-89" value="date of payment" style="ellipse;whiteSpace=wrap;html=1;align=center;fontFamily=Helvetica;fontSize=11;fontColor=default;labelBackgroundColor=default;" vertex="1" parent="1">
          <mxGeometry x="685" y="319" width="100" height="40" as="geometry" />
        </mxCell>
        <mxCell id="uSAuibyBn53Rk9vLUUWF-91" value="number of&amp;nbsp;&lt;div&gt;ordered people&lt;/div&gt;" style="ellipse;whiteSpace=wrap;html=1;align=center;fontFamily=Helvetica;fontSize=11;fontColor=default;labelBackgroundColor=default;" vertex="1" parent="1">
          <mxGeometry x="680" y="90" width="100" height="40" as="geometry" />
        </mxCell>
        <mxCell id="uSAuibyBn53Rk9vLUUWF-95" value="name" style="ellipse;whiteSpace=wrap;html=1;align=center;fontFamily=Helvetica;fontSize=11;fontColor=default;labelBackgroundColor=default;" vertex="1" parent="1">
          <mxGeometry x="483" y="85" width="100" height="40" as="geometry" />
        </mxCell>
        <mxCell id="uSAuibyBn53Rk9vLUUWF-98" value="total persons ordered" style="ellipse;whiteSpace=wrap;html=1;align=center;dashed=1;fontFamily=Helvetica;fontSize=11;fontColor=default;labelBackgroundColor=default;" vertex="1" parent="1">
          <mxGeometry x="547" y="291" width="100" height="46" as="geometry" />
        </mxCell>
      </root>
    </mxGraphModel>
  </diagram>
</mxfile>
